inDegrees=no
num_controls=7
num_derivatives=13
num_iterations=38
num_multipliers=7
num_parameters=0
num_slacks=7
num_states=26
objective=0.404292
objective_accelerations=0.000000
objective_balance=0.005244
objective_effort=0.048329
objective_height=0.350719
objective_ligament=0.000000
solver_duration=410.136666
status=Solve_Succeeded
success=true
DataType=double
version=3
OpenSimVersion=4.5
endheader
time	/jointset/ground_pelvis/pelvis_tilt/value	/jointset/ground_pelvis/pelvis_tx/value	/jointset/ground_pelvis/pelvis_ty/value	/jointset/hip_r/hip_flexion_r/value	/jointset/hip_r/hip_adduction_r/value	/jointset/hip_r/hip_rotation_r/value	/jointset/back/lumbar_extension/value	/jointset/patellofemoral_r/patellar_flexion_r/value	/jointset/knee_r/knee_flexion_r/value	/jointset/knee_r/knee_adduction_r/value	/jointset/knee_r/knee_rotation_r/value	/jointset/ankle_r/ankle_angle_r/value	/jointset/subtalar_r/subtalar_angle_r/value	/jointset/ground_pelvis/pelvis_tilt/speed	/jointset/ground_pelvis/pelvis_tx/speed	/jointset/ground_pelvis/pelvis_ty/speed	/jointset/hip_r/hip_flexion_r/speed	/jointset/hip_r/hip_adduction_r/speed	/jointset/hip_r/hip_rotation_r/speed	/jointset/back/lumbar_extension/speed	/jointset/patellofemoral_r/patellar_flexion_r/speed	/jointset/knee_r/knee_flexion_r/speed	/jointset/knee_r/knee_adduction_r/speed	/jointset/knee_r/knee_rotation_r/speed	/jointset/ankle_r/ankle_angle_r/speed	/jointset/subtalar_r/subtalar_angle_r/speed	/forceset/tau_hip_flexion_r	/forceset/tau_hip_adduction_r	/forceset/tau_hip_rotation_r	/forceset/tau_knee_flexion_r	/forceset/tau_ankle_angle_r	/forceset/tau_subtalar_angle_r	/forceset/tau_lumbar_extension	lambda_cid13_p0	lambda_cid14_p0	lambda_cid14_p1	lambda_cid14_p2	lambda_cid14_p3	lambda_cid14_p4	lambda_cid14_p5	/jointset/ground_pelvis/pelvis_tilt/accel	/jointset/ground_pelvis/pelvis_tx/accel	/jointset/ground_pelvis/pelvis_ty/accel	/jointset/hip_r/hip_flexion_r/accel	/jointset/hip_r/hip_adduction_r/accel	/jointset/hip_r/hip_rotation_r/accel	/jointset/back/lumbar_extension/accel	/jointset/patellofemoral_r/patellar_flexion_r/accel	/jointset/knee_r/knee_flexion_r/accel	/jointset/knee_r/knee_adduction_r/accel	/jointset/knee_r/knee_rotation_r/accel	/jointset/ankle_r/ankle_angle_r/accel	/jointset/subtalar_r/subtalar_angle_r/accel	gamma_cid13_p0	gamma_cid14_p0	gamma_cid14_p1	gamma_cid14_p2	gamma_cid14_p3	gamma_cid14_p4	gamma_cid14_p5
0	0.007535870665272377	0.09038188858443522	0.9426106560509721	0.1762555222360518	-0.2355399687472063	-0.1625754709170916	-0.038598046466844	0.0731786387345201	0.07317863873451017	0.1744557103692965	0.07972330628329372	0.03247278518263602	-0.008453338630000804	0	0	0	0	0	0	0	0	0	0	0	0	0	0.3456557169763166	-0.1708441930264711	0.005429060181807875	-0.2814922967605793	0.2543138028161706	-0.1434280320818178	-0.3491743516423588	-36.79230699547254	55.20478557133833	-49.79414260904903	5.16518342017646	-15.57456759072896	-309.990772153355	29.21747902337131	38.51861811698054	-9.931847028316707	-2.06628886001382	42.67511224093321	7.519448251559488	23.43391016485989	-80.29278196434278	126.7222515376253	126.7222515376253	-35.25067643163874	10.48444276301365	54.36247358509728	20.24197580209964	7.230587753558171e-06	2.111686387371597e-06	-0.000129753738612186	6.408920818416896e-05	8.968027893013645e-06	0.0001745566223348076	-7.958961176981204e-05
0.01	0.009148278471115281	0.0899117880566327	0.9425058703528248	0.1784423585337277	-0.2350902773398304	-0.1613123461286012	-0.04216609355955109	0.07901583185072086	0.07901583185071757	0.1726130976415766	0.07999620689354345	0.03498176387794458	-0.007411588572345628	0.2844450444737531	-0.09146921150714253	-0.02295458559974576	0.45146850030616	0.09755142828367713	0.2477822067146085	-0.6616585382909423	1.122271346918694	1.122271346918694	-0.3760503760410119	0.04117239424072298	0.4812972367638172	0.2124140453488434	0.3478843719969947	-0.1424796779898084	-0.002516932366321561	-0.3448415825164006	0.3092247113123712	-0.144864755707342	-0.3120603999594864	-36.99111076148083	65.51792977693901	-49.15663897200422	5.684885319628757	-11.49415050074294	-422.5329064440159	34.5795927793127	17.69868055602323	-8.370030498852342	-2.67474898101995	48.49734057369403	12.00257909326167	24.73909309488773	-51.30975772346456	98.20303870349483	98.20303870349491	-39.92583597239016	-1.061456779075543	41.93744722969903	22.33799655366816	2.66219224388312e-05	2.750450963710811e-05	-0.0002216937753887663	0.0001594101338552722	2.412295197856873e-06	0.0001359190254145986	-0.0002086863416631769
0.02	0.0124633833103718	0.08860388095637078	0.9421185976844667	0.1855668041641073	-0.2334391538543173	-0.1577136558389355	-0.05079219962757281	0.09472043092300156	0.09472043092300371	0.1667812575970295	0.08028181253948923	0.04168853464242758	-0.004126322530724211	0.3405394066855826	-0.1675613144918819	-0.05649739404218392	0.9875218665417969	0.2402864156269489	0.467113100234267	-1.011611795061645	1.973481191217526	1.973481191217526	-0.797845463364336	0.002541007134361381	0.8395584138346366	0.4487031967933465	0.3501130270176778	-0.1141151629531487	-0.0104629249143781	-0.4081908682722528	0.3641356198085606	-0.1463014793328729	-0.2749464482765999	-37.49300969956573	77.35758756315629	-48.59363004673649	6.607586220413131	-8.657769820903829	-508.8695832892523	37.63473655108167	-7.151518335403943	-6.856425323836265	-4.183933428552297	59.59208542682864	16.55616006347841	17.74364752586987	-17.95172566029481	72.50995101365302	72.50995101365302	-44.39961868810119	-5.476313506403235	29.75526164649749	25.01699702123151	4.601325712410423e-05	5.289733288684463e-05	-0.0003136338121653466	0.0002547310595263754	-4.143437497299899e-06	9.728142849438969e-05	-0.0003377830715565418
0.03	0.01544673751556324	0.08661846220023467	0.9413370617732463	0.1981610353299018	-0.230294821653213	-0.1522400275436649	-0.06162505076427742	0.1175850164918945	0.1175850164918957	0.1568439651550155	0.07994868429422244	0.05134474413188278	0.001478945410223871	0.249892759034179	-0.2263904434672386	-0.1005413158047429	1.508606399670211	0.3754735370839043	0.6189397085447842	-1.137518879145059	2.557226062199295	2.557226062199295	-1.155352271791449	-0.07170860995621853	1.07115171096106	0.6543483074008913	0.3021180253813961	-0.1218087558670228	-0.004612125292203479	-0.3983806080241711	0.3495015520361989	-0.1370044515436247	-0.2206072691904426	-38.14057100544203	73.21461130005095	-46.02007610527388	7.040887458867175	-5.278203700315661	-502.3946565859722	35.63021565928378	-10.9543738454713	-4.927212869934547	-4.605050516330118	44.96323967842454	10.03861305446068	12.64999404240209	-7.294266811893637	44.96599508610864	44.96599508610873	-26.30362724919994	-8.729415902652551	16.78881594885648	15.61803631427271	2.223681513183438e-05	2.619946123539008e-05	-0.000145267156341388	0.000124482377636515	-3.217337425248069e-06	3.845978554613255e-05	-0.0001673417503904293
0.04	0.01733699807113417	0.08413854091723506	0.9400970008511553	0.2152854323114879	-0.2261908932640049	-0.1454985678535337	-0.07319378614772673	0.1450188987597357	0.1450188987597366	0.144356121562886	0.07880703385960931	0.06270237703323173	0.008596618103998217	0.1219206767643195	-0.2664618198645817	-0.1482023962163038	1.893555029701707	0.4322056532471246	0.7206793792056739	-1.15878864440961	2.887340531007855	2.887340531007855	-1.307955693385909	-0.1591634307374837	1.179843096213151	0.7511841473587066	0.2541230237451135	-0.1295023487809015	0.001238674330010904	-0.3885703477761068	0.3348674842638299	-0.1277074237543838	-0.1662680901042802	-38.80930614571568	68.60964227206568	-43.71316525767639	7.72931728578245	-3.224069714654551	-504.6865625884261	31.21957196770234	-14.61660525909485	-3.104874808233738	-4.907365158352666	32.36490480744513	0.8651590047314055	7.726259995944324	2.975738103477874	21.78387057901119	21.78387057901119	-3.418941321570777	-8.117354244540271	5.174879271630921	3.255142891285536	-2.429684111518831e-06	-1.572445362480792e-06	2.846664778361277e-05	-1.04172239968704e-05	-2.136972760057917e-06	-2.077802329961015e-05	9.275613065569388e-06
0.05	0.01782706144627578	0.08133142488981046	0.9383744756730124	0.2357042689541784	-0.2218354771615171	-0.1379908832358054	-0.08459615776944886	0.174783465233548	0.1747834652335492	0.1311674844130687	0.07683420165305556	0.07467043538645489	0.0162428720880162	-0.02463500830965985	-0.2938664488464034	-0.1958020123840746	2.180778447978093	0.4372071221340583	0.7753503163799457	-1.117359934646053	3.050574581551925	3.050574581551925	-1.323485891583959	-0.2332083241072715	1.206983733193401	0.7747267457392318	0.2386873925609846	-0.1162390951732354	0.003719488471251566	-0.3989378118861879	0.3370398850505212	-0.1193460583042607	-0.1466860508845156	-39.41174646665793	68.57970070707329	-41.15434607143724	8.540381016860506	-2.649673409177915	-518.9511980548161	30.38069761913808	-14.78403536800947	-2.394435091803211	-4.615800085773784	25.4857030387782	0.07079562101849046	3.507313582728924	5.375299206375189	11.34413022393089	11.34413022393099	0.3274729936729	-6.722872944647055	0.4653444258548112	1.406565550818589	-8.955701744522598e-06	-1.040553115065893e-05	7.097900838018436e-05	-2.70342063290007e-05	-2.590487708908477e-06	-2.166325288765688e-05	3.709711507921174e-05
0.06	0.0168297709233745	0.07828302694283819	0.9361900462852342	0.2587122683198352	-0.2174794154120878	-0.1301025286454207	-0.09545446993482253	0.2057305637991643	0.205730563799167	0.1180130516937819	0.07418595730052176	0.08670623781240773	0.02402510150371541	-0.1755501028419884	-0.3147182037741127	-0.2405832381433253	2.411387574296204	0.4323347826347588	0.7968133737366255	-1.049976753139254	3.123846949369036	3.123846949369036	-1.301114807278215	-0.2942458599350179	1.193391910758963	0.7783792336950612	0.223251761376859	-0.1029758415655723	0.006200302612514717	-0.4093052759962829	0.339212285837206	-0.1109846928541421	-0.1271040116647425	-39.89975708109702	68.38998652697846	-38.6154509032956	9.345585254697305	-3.242481037633739	-537.170360411284	29.50362437735576	-15.48848715076442	-1.794299997411409	-4.34368707664864	21.04204641579031	-1.109602672515247	1.084684032425909	8.166632452126391	3.791534033619377	3.791534033619377	4.161315179187775	-5.515882736131946	-2.971612611306733	-0.7228791936536546	-1.471790962551165e-05	-1.844119290474473e-05	0.0001079662555650325	-3.867086784844649e-05	-3.108587062560752e-06	-2.009153177011641e-05	5.8653528190018e-05
0.07000000000000001	0.01433316299041949	0.07505486672773796	0.9335749278998212	0.2837747413658432	-0.213235771322435	-0.1221668948479128	-0.1055529280547418	0.2370696688979226	0.2370696688979231	0.1052698585708149	0.07104986302082504	0.09845249784016791	0.0317360862669195	-0.3212979180607179	-0.3301612493396625	-0.2816847940768914	2.593722204478707	0.4145757529175034	0.78725464705665	-0.9696751014946342	3.13754357735911	3.13754357735911	-1.243311892170692	-0.3292764971597081	1.153442548948888	0.7609518376303164	0.2027243560814704	-0.08985387942638574	0.008719956698438067	-0.4087968315661439	0.331303303236314	-0.1018753232654668	-0.1069256635282125	-40.25304435028863	65.51303400403664	-36.01219457874636	9.900480154945216	-4.37139666768386	-548.7846495137441	28.2750110181291	-13.74903016939872	-1.307046347936775	-3.88404237754145	15.71903068291103	-2.372378989762861	-2.445463432048511	7.967896923349766	-0.8028333447371001	-0.8028333447370449	7.235682785053798	-1.95168726028338	-4.874269415408307	-2.669505970084536	-1.388134135001431e-05	-1.781934176770761e-05	9.978246157581398e-05	-4.554982254928066e-05	-2.059347775863856e-06	-1.876927693113816e-05	6.289475340218581e-05
0.08	0.01045285661287396	0.07169472815462022	0.9305706634499059	0.3104385325863564	-0.2092223827036329	-0.1144207107999697	-0.114847176577674	0.2683534281712858	0.2683534281712853	0.09323387522058611	0.06767245576000527	0.1097257299599202	0.03918942983803569	-0.4522897917582572	-0.3411138753776202	-0.3184124510438078	2.731651209198448	0.3862836884629644	0.7589234238230984	-0.889134833741194	3.112777784291643	3.112777784291643	-1.159672852722403	-0.3425084561702313	1.098786329156796	0.7268509952775863	0.1821969507860615	-0.07673191728721511	0.01123961078450429	-0.4082883871360412	0.3233943206354069	-0.09276595367681963	-0.08674731539168955	-40.47097637839621	62.57728009702375	-33.29448250305337	10.29478383218396	-6.172474245115541	-562.3892033070721	27.80743249112207	-12.53729884652609	-0.8962160918931034	-3.468907283318722	12.16092132323778	-3.21620961997199	-2.669815278289383	8.214355673890717	-3.900950177888764	-3.900950177888764	9.328540047340866	-1.156147093298533	-5.912984207710075	-4.057568451250721	-1.261904558055011e-05	-1.663894141188837e-05	8.868440686568789e-05	-5.212182842310763e-05	-9.089898672089506e-07	-1.746311669077684e-05	6.601886971766725e-05
0.09	0.00533996067833123	0.06824489798234651	0.9272211186814653	0.3382942873291557	-0.2055363857570761	-0.1070143897147262	-0.1233442860206767	0.2992517904296779	0.2992517904296766	0.08213206958460378	0.06425515452195985	0.1204081771305129	0.0462315276226662	-0.5674970869547593	-0.3483247221607528	-0.3507772924213478	2.834924683297409	0.3510998248670258	0.7199464408591516	-0.8110865447000909	3.065014937942275	3.065014937942274	-1.061808092549556	-0.3376636539501119	1.037823836733925	0.6815086494146683	0.1598532022992234	-0.06264969605904547	0.01300535923847327	-0.4033057867933585	0.3113937714466158	-0.08532007434516362	-0.06658083372863495	-40.55786996048865	58.47900487695905	-31.33636029224901	10.61999379998327	-7.993481019229847	-573.2150393932003	26.45050732640999	-10.59527893108367	-0.5545666407048778	-3.015862545207681	8.722348655958521	-3.639119814699423	-4.88250652469195	7.480142043290741	-5.493407871625034	-5.49340787162493	9.85641360742434	1.787345870559814	-6.173650435526908	-4.773701717793148	-9.421662545464787e-06	-1.244458203225174e-05	6.778866228960987e-05	-4.32281794161639e-05	-5.647214455554034e-07	-1.419729471253597e-05	5.334134918575301e-05
